<svg width="18" height="20" viewBox="0 0 18 20" fill="none" xmlns="http://www.w3.org/2000/svg">
<path fill-rule="evenodd" clip-rule="evenodd" d="M16 5.75L14.6977 17.4709C14.5851 18.4837 13.729 19.25 12.7099 19.25H5.29009C4.27099 19.25 3.41486 18.4837 3.30232 17.4709L2 5.75H16ZM11.5401 0C11.832 0 12.1093 0.127563 12.2993 0.349209L13.2007 1.40079C13.3907 1.62244 13.668 1.75 13.9599 1.75H17.2C17.6418 1.75 18 2.10817 18 2.55V3.2C18 3.64183 17.6418 4 17.2 4H0.8C0.358172 4 0 3.64183 0 3.2V2.55C0 2.10817 0.358172 1.75 0.8 1.75H4.04007C4.33199 1.75 4.60934 1.62244 4.79932 1.40079L5.70068 0.349209C5.89066 0.127563 6.16801 0 6.45993 0H11.5401Z" fill="white"/>
</svg>
